<svg width="300" height="40" viewBox="0 0 300 40" fill="none" xmlns="http://www.w3.org/2000/svg">
<g clip-path="url(#clip0_41_11656)">
<path d="M24.1176 19.9997C24.1176 26.1997 19.1176 31.2997 12.9411 31.2997C6.76465 31.2997 1.76465 26.2997 1.76465 19.9997C1.76465 13.7997 6.76465 8.69971 12.9411 8.69971C19.9019 8.69971 24.1176 13.8997 24.1176 19.9997Z" fill="white"/>
<path d="M12.9413 32.0999C6.37263 32.0999 0.980469 26.6999 0.980469 19.9999C0.980469 13.2999 6.37263 7.8999 12.9413 7.8999C19.902 7.8999 24.902 12.9999 24.902 19.9999C25.0001 26.6999 19.6079 32.0999 12.9413 32.0999ZM12.9413 9.5999C7.25498 9.5999 2.64714 14.1999 2.64714 19.9999C2.64714 25.7999 7.25498 30.3999 13.0393 30.3999C18.7256 30.3999 23.4314 25.6999 23.4314 19.9999C23.3334 13.8999 19.1177 9.5999 12.9413 9.5999Z" fill="black"/>
<path d="M12.9417 21.5C13.824 21.5 14.5103 20.8 14.5103 20C14.5103 19.2 13.824 18.5 12.9417 18.5C12.0593 18.5 11.373 19.2 11.373 20C11.4711 20.8 12.1574 21.5 12.9417 21.5Z" fill="#FFD00F"/>
<path d="M42.5495 31.2997C48.726 31.2997 53.726 26.2997 53.726 19.9997C53.726 13.6997 48.726 8.69971 42.5495 8.69971C36.373 8.69971 31.373 13.7997 31.373 19.9997C31.373 26.1997 36.373 31.2997 42.5495 31.2997Z" fill="white"/>
<path d="M42.5487 32.0999C35.98 32.0999 30.5879 26.6999 30.5879 19.9999C30.5879 13.2999 35.98 7.8999 42.5487 7.8999C49.1173 7.8999 54.5095 13.2999 54.5095 19.9999C54.6075 26.6999 49.2153 32.0999 42.5487 32.0999ZM42.5487 9.5999C36.8624 9.5999 32.1565 14.2999 32.1565 19.9999C32.1565 25.6999 36.7644 30.3999 42.5487 30.3999C48.333 30.3999 52.9408 25.7999 52.9408 19.9999C52.9408 14.1999 48.333 9.5999 42.5487 9.5999Z" fill="black"/>
<path d="M42.5489 26.7997C46.2744 26.7997 49.3136 23.6997 49.3136 19.9997C49.3136 16.2997 46.2744 13.1997 42.5489 13.1997C38.8234 13.1997 35.7842 16.2997 35.7842 19.9997C35.7842 23.6997 38.8234 26.7997 42.5489 26.7997Z" fill="#FFD00F"/>
<path d="M42.549 24.7997C45.1961 24.7997 47.353 22.5997 47.353 19.9997C47.353 17.2997 45.1961 15.1997 42.549 15.1997C39.902 15.1997 37.7451 17.3997 37.7451 19.9997C37.8432 22.6997 39.902 24.7997 42.549 24.7997Z" fill="#FFD00F"/>
<path d="M44.412 19.9996C44.412 20.9996 43.6277 21.8996 42.5493 21.8996C41.5689 21.8996 40.6865 21.0996 40.6865 19.9996C40.6865 18.9996 41.4708 18.0996 42.5493 18.0996C43.6277 18.0996 44.412 18.9996 44.412 19.9996Z" fill="#FFD00F"/>
<path d="M72.0593 31.2997C78.2358 31.2997 83.2358 26.2997 83.2358 19.9997C83.2358 13.6997 78.2358 8.69971 72.0593 8.69971C65.8828 8.69971 60.8828 13.6997 60.8828 19.9997C60.8828 26.2997 65.8828 31.2997 72.0593 31.2997Z" fill="#FFD00F"/>
<path d="M72.0584 32.0999C65.4898 32.0999 60.0977 26.6999 60.0977 19.9999C60.0977 13.2999 65.4898 7.8999 72.0584 7.8999C78.6271 7.8999 84.0192 13.2999 84.0192 19.9999C84.1173 26.6999 78.7251 32.0999 72.0584 32.0999ZM72.0584 9.5999C66.3722 9.5999 61.7643 14.1999 61.7643 19.9999C61.7643 25.7999 66.3722 30.3999 72.1565 30.3999C77.8428 30.3999 82.5486 25.6999 82.5486 19.9999C82.5486 14.2999 77.8428 9.5999 72.0584 9.5999Z" fill="black"/>
<path d="M72.0591 29.0999C77.0591 29.0999 81.1767 24.9999 81.1767 19.9999C81.1767 14.9999 77.1571 10.8999 72.0591 10.8999C67.0591 10.8999 62.9414 14.9999 62.9414 19.9999C63.0394 24.9999 67.0591 29.0999 72.0591 29.0999Z" fill="#FFD00F"/>
<path d="M72.0587 26.7997C75.7841 26.7997 78.8234 23.6997 78.8234 19.9997C78.8234 16.1997 75.7841 13.1997 72.0587 13.1997C68.3332 13.1997 65.2939 16.2997 65.2939 19.9997C65.2939 23.7997 68.3332 26.7997 72.0587 26.7997Z" fill="#FFD00F"/>
<path d="M72.0588 24.7997C74.7059 24.7997 76.8627 22.5997 76.8627 19.9997C76.8627 17.2997 74.7059 15.1997 72.0588 15.1997C69.4117 15.1997 67.2549 17.3997 67.2549 19.9997C67.3529 22.6997 69.4117 24.7997 72.0588 24.7997Z" fill="#FFD00F"/>
<path d="M72.0587 21.8996C73.039 21.8996 73.9214 21.0996 73.9214 19.9996C73.9214 18.9996 73.1371 18.0996 72.0587 18.0996C70.9802 18.0996 70.2939 18.9996 70.2939 19.9996C70.2939 20.9996 71.0783 21.8996 72.0587 21.8996Z" fill="#FFD00F"/>
<path d="M105.784 29.5998C104.804 30.7998 103.627 31.1998 102.156 31.1998C101.274 31.1998 100.49 30.8998 99.8035 30.4998C99.4114 30.1998 98.6271 29.5998 98.431 29.0998V30.7998H95.0977V0.799805H98.529V10.2998C98.8231 9.79981 99.3133 9.29981 99.8035 9.09981C100.49 8.69981 101.274 8.49981 102.156 8.49981C103.725 8.49981 104.902 9.09981 105.784 10.0998C107.156 11.7998 107.353 14.7998 107.353 19.8998C107.353 24.9998 107.156 27.9998 105.784 29.5998ZM103.039 12.3998C102.647 11.7998 101.862 11.4998 101.078 11.4998C100.392 11.4998 99.8035 11.6998 99.3133 12.1998C98.7251 12.7998 98.431 13.5998 98.431 14.7998V24.8998C98.431 26.0998 98.7251 26.9998 99.3133 27.4998C99.8035 27.9998 100.392 28.0998 101.078 28.0998C101.862 28.0998 102.549 27.7998 103.039 27.1998C103.823 26.0998 103.921 23.7998 103.921 19.7998C103.921 15.7998 103.823 13.4998 103.039 12.3998Z" fill="#231F20"/>
<path d="M118.922 11.6999C116.569 11.6999 114.902 13.1999 114.902 15.7999V30.8999H111.471V9.0999H114.804V11.0999C115.098 10.4999 115.784 9.8999 116.373 9.4999C117.353 8.7999 118.628 8.3999 120 8.3999V11.6999H118.922Z" fill="#231F20"/>
<path d="M130.784 30.8998V28.8998C130.49 29.4998 129.902 30.0998 129.51 30.3998C128.823 30.8998 128.137 31.1998 126.961 31.1998C125.392 31.1998 124.216 30.6998 123.137 29.4998C122.255 28.4998 121.765 26.7998 121.765 24.4998C121.765 22.3998 122.451 20.5998 123.725 19.4998C124.804 18.4998 126.078 17.9998 128.431 17.9998H130.686V14.4998C130.686 12.3998 129.804 11.2998 128.137 11.2998C127.353 11.2998 126.863 11.5998 126.471 11.9998C125.882 12.5998 125.686 13.3998 125.686 14.5998H122.255C122.255 12.8998 122.647 11.1998 123.922 9.8998C124.902 8.8998 126.471 8.2998 128.137 8.2998C129.902 8.2998 131.373 8.7998 132.451 9.7998C133.529 10.8998 134.216 12.3998 134.216 14.6998V30.7998H130.784V30.8998ZM130.588 20.5998H128.627C127.549 20.5998 126.863 20.7998 126.176 21.3998C125.588 21.9998 125.196 23.1998 125.196 24.3998C125.196 26.6998 126.078 28.0998 127.843 28.0998C129.51 28.0998 130.588 26.6998 130.588 24.5998V20.5998Z" fill="#231F20"/>
<path d="M147.353 30.8998V14.5998C147.353 12.4998 146.177 11.4998 144.706 11.4998C143.235 11.4998 142.157 12.4998 142.157 14.5998V30.8998H138.726V9.0998H142.059V10.3998C142.353 9.8998 142.941 9.2998 143.431 8.9998C144.118 8.5998 144.902 8.2998 145.784 8.2998C147.451 8.2998 148.628 8.8998 149.51 9.8998C150.392 10.8998 150.784 12.0998 150.784 14.4998V30.7998H147.353V30.8998Z" fill="#231F20"/>
<path d="M163.726 30.8998V29.1998C163.53 29.5998 162.844 30.2998 162.451 30.5998C161.765 30.9998 160.981 31.2998 160.098 31.2998C158.628 31.2998 157.451 30.7998 156.471 29.6998C155.098 27.9998 154.902 24.9998 154.902 19.8998C154.902 14.7998 155.098 11.7998 156.471 10.0998C157.353 8.9998 158.53 8.4998 160.098 8.4998C160.981 8.4998 161.765 8.6998 162.451 9.0998C162.844 9.39981 163.432 9.89981 163.726 10.2998V0.799805H167.157V30.8998H163.726ZM163.628 14.6998C163.628 13.4998 163.334 12.6998 162.745 12.0998C162.255 11.5998 161.667 11.3998 160.981 11.3998C160.196 11.3998 159.51 11.6998 159.118 12.2998C158.334 13.3998 158.236 15.6998 158.236 19.6998C158.236 23.6998 158.334 25.9998 159.118 27.0998C159.51 27.6998 160.196 27.9998 160.981 27.9998C161.667 27.9998 162.353 27.7998 162.745 27.3998C163.334 26.7998 163.628 25.9998 163.628 24.7998V14.6998Z" fill="#231F20"/>
<path d="M187.353 30.8998V28.8998C187.059 29.4998 186.47 30.0998 186.078 30.3998C185.392 30.8998 184.706 31.1998 183.529 31.1998C181.862 31.1998 180.784 30.6998 179.706 29.4998C178.823 28.4998 178.333 26.7998 178.333 24.4998C178.333 22.3998 179.019 20.5998 180.294 19.4998C181.372 18.4998 182.647 17.9998 185 17.9998H187.255V14.4998C187.255 12.3998 186.372 11.2998 184.706 11.2998C183.921 11.2998 183.431 11.5998 183.039 11.9998C182.451 12.5998 182.255 13.3998 182.255 14.5998H178.823C178.823 12.8998 179.215 11.1998 180.49 9.8998C181.47 8.8998 183.039 8.2998 184.706 8.2998C186.47 8.2998 187.941 8.7998 189.019 9.7998C190.098 10.8998 190.784 12.3998 190.784 14.6998V30.7998H187.353V30.8998ZM187.157 20.5998H185.196C184.117 20.5998 183.431 20.7998 182.745 21.3998C182.058 21.9998 181.764 23.1998 181.764 24.3998C181.764 26.6998 182.647 28.0998 184.411 28.0998C186.078 28.0998 187.157 26.6998 187.157 24.5998V20.5998Z" fill="#231F20"/>
<path d="M212.549 30.8998V14.5998C212.549 12.4998 211.372 11.4998 210 11.4998C208.529 11.4998 207.451 12.4998 207.451 14.5998V30.8998H203.921V14.5998C203.921 12.4998 202.745 11.4998 201.274 11.4998C199.804 11.4998 198.725 12.4998 198.725 14.5998V30.8998H195.294V9.0998H198.627V10.3998C198.921 9.8998 199.51 9.2998 200 8.9998C200.686 8.5998 201.47 8.2998 202.353 8.2998C204.019 8.2998 205.686 9.1998 206.568 10.5998C207.059 9.9998 207.647 9.3998 208.333 8.9998C209.019 8.5998 210 8.2998 210.882 8.2998C212.843 8.2998 213.921 8.8998 214.804 9.8998C215.686 10.8998 216.078 12.0998 216.078 14.4998V30.7998H212.549V30.8998Z" fill="#231F20"/>
<path d="M231.47 29.5998C230.588 30.6998 229.412 31.1998 227.843 31.1998C226.961 31.1998 226.176 30.9998 225.49 30.5998C225.098 30.2998 224.51 29.7998 224.216 29.3998V39.1998H220.784V9.0998H224.118V10.3998C224.314 9.9998 225.098 9.2998 225.49 8.9998C226.176 8.5998 226.961 8.2998 227.843 8.2998C229.314 8.2998 230.49 8.7998 231.47 9.8998C232.843 11.5998 233.039 14.5998 233.039 19.6998C233.039 24.9998 232.843 27.9998 231.47 29.5998ZM228.725 12.3998C228.333 11.7998 227.549 11.4998 226.765 11.4998C226.078 11.4998 225.49 11.6998 225 12.1998C224.412 12.7998 224.118 13.5998 224.118 14.7998V24.8998C224.118 26.0998 224.412 26.9998 225 27.4998C225.49 27.9998 226.078 28.0998 226.765 28.0998C227.549 28.0998 228.235 27.7998 228.725 27.1998C229.51 26.0998 229.608 23.7998 229.608 19.7998C229.608 15.7998 229.608 13.4998 228.725 12.3998Z" fill="#231F20"/>
<path d="M239.019 29.4998C237.843 28.4998 237.059 26.9998 237.059 24.4998V0.799805H240.49V24.4998C240.49 26.6998 241.47 27.7998 243.725 27.7998V30.8998C241.863 30.8998 240.294 30.6998 239.019 29.4998Z" fill="#231F20"/>
<path d="M246.568 4.7998V0.799805H250.588V4.7998H246.568ZM246.961 30.8998V9.0998H250.392V30.8998H246.961Z" fill="#231F20"/>
<path d="M259.51 11.7998V30.8998H256.078V11.7998H253.529V9.0998H256.078V7.0998C256.078 4.7998 256.765 3.1998 258.039 2.1998C259.412 0.999805 261.078 0.799805 262.941 0.799805V3.8998C260.686 3.8998 259.51 4.9998 259.51 7.1998V9.0998H262.941V11.7998H259.51Z" fill="#231F20"/>
<path d="M266.177 4.7998V0.799805H270.196V4.7998H266.177ZM266.471 30.8998V9.0998H269.902V30.8998H266.471Z" fill="#231F20"/>
<path d="M277.451 20.5998C277.451 24.0998 277.647 26.1998 278.431 27.0998C278.823 27.5998 279.412 27.9998 280.294 27.9998C281.078 27.9998 281.765 27.6998 282.255 27.0998C282.745 26.4998 283.039 25.5998 283.039 24.5998H286.471C286.471 26.5998 285.882 28.1998 284.706 29.4998C283.627 30.6998 282.059 31.0998 280.294 31.0998C278.431 31.0998 277.157 30.5998 275.98 29.3998C274.314 27.5998 274.02 24.2998 274.02 19.6998C274.02 14.9998 274.216 11.6998 275.98 9.9998C277.157 8.7998 278.529 8.2998 280.294 8.2998C282.059 8.2998 283.431 8.7998 284.608 9.9998C286.47 11.9998 286.569 15.7998 286.569 20.4998L277.451 20.5998ZM282.255 12.3998C281.863 11.8998 281.176 11.4998 280.294 11.4998C279.412 11.4998 278.823 11.8998 278.431 12.3998C277.745 13.1998 277.549 14.9998 277.549 17.9998H283.137C283.039 14.9998 282.843 13.1998 282.255 12.3998Z" fill="#231F20"/>
<path d="M297.941 11.6999C295.588 11.6999 293.922 13.1999 293.922 15.7999V30.8999H290.49V9.0999H293.824V11.0999C294.118 10.4999 294.804 9.8999 295.392 9.4999C296.373 8.7999 297.647 8.3999 299.02 8.3999V11.6999H297.941Z" fill="#231F20"/>
</g>
<defs>
<clipPath id="clip0_41_11656">
<rect width="300" height="40" fill="white"/>
</clipPath>
</defs>
</svg>
