<svg xmlns="http://www.w3.org/2000/svg" viewBox="0 0 50 52" fill="none">
  <path d="M49.626 11.564a.809.809 0 01.028.209v10.972a.8.8 0 01-.402.694l-9.209 5.302V39.25c0 .286-.152.55-.4.694L20.42 51.01c-.044.025-.092.041-.14.058-.018.006-.035.017-.054.022a.805.805 0 01-.41 0c-.022-.006-.042-.018-.063-.026-.044-.016-.09-.03-.132-.054L.402 39.944A.801.801 0 010 39.25V6.334c0-.072.01-.142.028-.21.006-.023.02-.044.028-.067.015-.042.029-.085.051-.124.015-.026.037-.047.055-.071.023-.032.044-.065.071-.093.02-.019.047-.033.071-.05.03-.024.056-.05.088-.069h.001l9.611-5.533a.802.802 0 01.8 0l9.61 5.533h.002c.032.02.059.045.088.068.024.018.051.032.071.051.027.028.048.06.071.093.018.024.04.045.055.071.023.04.036.082.051.124.009.023.022.044.028.068a.81.81 0 01.028.209v20.559l8.008-4.611V11.773a.819.819 0 01.028-.21c.006-.023.02-.044.028-.067a.726.726 0 01.051-.124c.015-.026.037-.047.055-.071.023-.032.045-.065.071-.093.02-.019.048-.033.071-.05.031-.025.058-.05.089-.07h.001l9.611-5.532a.801.801 0 01.8 0l9.61 5.533c.033.02.06.045.09.068.023.018.05.032.07.051.027.028.048.06.071.093.018.024.04.045.056.071.022.04.035.082.05.124.008.023.022.044.028.068zM48.017 22.332V12.839l-3.363 1.936-4.646 2.675v9.493l8.01-4.611zM38.008 38.837V29.34l-4.57 2.61-12.85 7.341v9.581l17.42-10.035zM1.605 7.509v31.328L19.025 48.87v-9.578l-9.205-5.216-.003-.002-.003-.001c-.031-.02-.057-.044-.087-.067-.024-.018-.05-.033-.07-.052-.027-.027-.048-.06-.07-.092-.02-.025-.04-.047-.056-.072-.022-.042-.035-.082-.05-.125-.007-.022-.02-.043-.027-.066v-20.86L5.252 9.445l-3.647-2.1v.164zM10.014 1.542L2.008 6.156l8.003 4.611 8.003-4.611-8-4.614zm4.407 23.726l4.644-2.674V2.377l-3.363 1.936-4.646 2.675v20.217l3.365-1.937zM39.21 7.17L31.207 11.784l8.005 4.609 8.003-4.61-8.005-4.613zm-.801 10.058l-4.646-2.675-3.363-1.936v9.493l4.645 2.674 3.364 1.937v-9.493zM20.422 44.658l11.588-6.621 5.82-3.326-8-4.606-9.212 5.303-8.214 4.73 8.018 4.52z" fill="#FF2D20"/>
</svg>
