<svg xmlns="http://www.w3.org/2000/svg" viewBox="0 0 512 512">
  <defs>
    <linearGradient id="grad1" x1="0%" y1="0%" x2="100%" y2="100%">
      <stop offset="0%" style="stop-color:#4FC3F7;stop-opacity:1" />
      <stop offset="100%" style="stop-color:#0288D1;stop-opacity:1" />
    </linearGradient>
    <filter id="shadow" x="-20%" y="-20%" width="140%" height="140%">
      <feDropShadow dx="0" dy="4" stdDeviation="4" flood-opacity="0.25"/>
    </filter>
  </defs>
  
  <!-- Background -->
  <rect width="512" height="512" rx="100" fill="url(#grad1)" />
  
  <!-- Location Pin -->
  <path d="M256 100c-88.37 0-160 71.63-160 160 0 88.37 160 220 160 220s160-131.63 160-220c0-88.37-71.63-160-160-160z" fill="white" filter="url(#shadow)"/>
  
  <!-- Airplane Icon (Material Design), Centered & Rotated -->
  <g transform="translate(256, 260) scale(7) rotate(45) translate(-12, -12)">
    <path d="M21 16v-2l-8-5V3.5c0-.83-.67-1.5-1.5-1.5S10 2.67 10 3.5V9l-8 5v2l8-2.5V19l-2 1.5V22l3.5-1 3.5 1v-1.5L13 19v-5.5l8 2.5z" fill="#0288D1"/>
  </g>
</svg>