<?xml version="1.0" standalone="no"?>
<!DOCTYPE svg PUBLIC "-//W3C//DTD SVG 20010904//EN"
 "http://www.w3.org/TR/2001/REC-SVG-20010904/DTD/svg10.dtd">
<svg version="1.0" xmlns="http://www.w3.org/2000/svg"
 width="1280.000000pt" height="1280.000000pt" viewBox="0 0 1280.000000 1280.000000"
 preserveAspectRatio="xMidYMid meet">
<metadata>
Created by potrace 1.15, written by Peter Selinger 2001-2017
</metadata>
<g transform="translate(0.000000,1280.000000) scale(0.100000,-0.100000)"
fill="#000000" stroke="none">
<path d="M6095 12794 c-27 -2 -115 -8 -195 -14 -1509 -111 -2942 -773 -4029
-1861 -1068 -1070 -1705 -2439 -1848 -3969 -24 -258 -24 -842 0 -1100 131
-1408 672 -2660 1603 -3710 124 -140 423 -438 557 -554 193 -168 301 -251 747
-577 177 -130 424 -265 697 -383 81 -35 200 -86 264 -114 1042 -453 2264 -612
3419 -446 554 79 1130 241 1610 451 69 30 186 81 260 112 292 125 522 255 769
437 563 416 714 544 1072 910 796 814 1390 1930 1633 3064 101 472 140 852
140 1360 1 594 -60 1077 -204 1625 -471 1789 -1689 3285 -3346 4108 -725 360
-1452 565 -2284 643 -145 14 -754 26 -865 18z m235 -479 c0 -184 -2 -335 -5
-335 -3 0 -45 20 -93 44 -272 136 -621 243 -967 296 -165 26 -573 38 -725 22
-52 -6 -97 -9 -98 -7 -6 5 175 60 360 109 452 121 996 199 1421 205 l107 1 0
-335z m452 325 c427 -29 834 -94 1216 -196 185 -49 366 -104 360 -109 -1 -2
-46 1 -98 7 -152 16 -560 4 -725 -22 -346 -53 -695 -160 -967 -296 -48 -24
-90 -44 -93 -44 -3 0 -5 151 -5 335 l0 335 79 0 c44 0 148 -5 233 -10z m-1679
-450 c278 -27 570 -96 827 -197 63 -25 118 -48 123 -52 4 -4 -57 -13 -135 -20
-746 -66 -1501 -289 -2117 -624 -57 -32 -105 -56 -106 -55 -14 18 -335 583
-335 589 0 12 157 90 289 144 276 112 578 186 891 218 81 9 464 6 563 -3z
m3337 -19 c318 -49 640 -151 911 -287 52 -25 95 -47 97 -49 3 -2 -325 -574
-337 -588 -4 -4 -54 18 -111 49 -619 337 -1380 561 -2118 626 -78 6 -139 15
-135 19 17 16 251 102 378 139 185 54 365 88 605 114 19 2 157 3 305 1 214 -2
298 -7 405 -24z m-2315 -406 c-16 -13 -77 -61 -135 -106 -339 -267 -606 -581
-821 -964 -201 -360 -333 -763 -384 -1178 -8 -66 -16 -122 -18 -123 -4 -4
-986 1697 -989 1711 -2 13 255 146 447 231 540 240 1111 386 1715 439 80 7
161 13 180 13 l35 1 -30 -24z m720 10 c727 -62 1390 -252 2030 -583 102 -53
149 -82 147 -92 -4 -16 -985 -1720 -989 -1716 -1 1 -9 59 -18 129 -104 849
-532 1612 -1200 2141 -60 48 -123 98 -140 111 -36 29 -44 28 170 10z m-3455
-301 c91 -158 166 -292 168 -299 2 -6 -52 -47 -120 -90 -363 -229 -685 -492
-1003 -816 -231 -237 -424 -471 -610 -739 -78 -114 -78 -113 -70 -55 123 936
592 1702 1360 2217 55 37 102 68 105 68 3 0 79 -129 170 -286z m6381 159 c407
-291 741 -679 959 -1113 165 -328 264 -659 315 -1045 8 -59 7 -58 -71 55 -183
266 -377 502 -609 739 -318 325 -638 585 -1002 816 -68 42 -123 79 -123 82 0
4 172 304 287 500 l54 93 57 -36 c31 -20 91 -61 133 -91z m-3441 -962 c0 -938
-2 -1039 -16 -1045 -9 -3 -46 -6 -82 -6 -78 0 -290 -24 -412 -46 -245 -45
-505 -126 -735 -229 -83 -37 -156 -69 -162 -72 -15 -6 -12 39 13 247 96 784
522 1536 1149 2025 95 74 225 165 237 165 4 0 8 -468 8 -1039z m231 988 c637
-439 1093 -1120 1258 -1877 34 -158 80 -512 66 -512 -4 0 -60 25 -126 56 -257
118 -502 197 -779 248 -120 22 -333 46 -412 46 -36 0 -73 3 -82 6 -14 6 -16
107 -16 1045 0 571 4 1039 8 1039 5 0 42 -23 83 -51z m-4404 -701 c-110 -155
-249 -413 -332 -617 -120 -297 -196 -614 -226 -938 -12 -130 -12 -132 -33
-121 -58 31 -522 301 -530 308 -10 10 44 101 181 304 149 220 340 467 516 666
74 83 460 470 465 465 2 -2 -16 -32 -41 -67z m1663 -230 c96 -167 324 -562
507 -878 182 -316 330 -576 328 -578 -1 -2 -26 8 -54 23 -182 91 -469 189
-712 240 -262 56 -665 80 -936 56 -342 -30 -671 -111 -970 -237 -59 -25 -115
-48 -122 -52 -17 -6 125 203 238 353 315 417 733 824 1163 1132 133 96 359
242 373 243 6 0 89 -136 185 -302z m5475 223 c627 -400 1146 -906 1581 -1540
43 -63 71 -112 63 -109 -7 4 -63 27 -122 52 -299 126 -628 207 -970 237 -183
16 -554 6 -727 -20 -329 -49 -608 -130 -874 -255 -60 -28 -96 -40 -92 -31 5
14 964 1678 992 1723 8 12 17 22 20 22 3 0 61 -35 129 -79z m1625 -236 c237
-245 480 -547 687 -855 73 -109 163 -257 163 -267 -1 -6 -519 -309 -549 -321
-4 -1 -13 57 -20 130 -31 332 -114 670 -235 961 -79 192 -218 448 -322 594
-24 34 -44 65 -44 69 0 9 164 -150 320 -311z m-4595 -1247 c3 -7 4 -501 3
-1098 l-3 -1085 -34 100 c-121 358 -298 687 -537 995 -171 221 -468 497 -711
662 -48 33 -89 63 -91 67 -3 10 227 120 343 165 271 104 598 176 890 196 60 4
116 8 123 9 7 0 15 -5 17 -11z m440 -14 c235 -27 492 -88 712 -170 105 -39
373 -163 373 -173 0 -3 -42 -35 -94 -69 -227 -153 -512 -415 -687 -632 -239
-298 -437 -659 -560 -1025 l-34 -100 -3 1085 c-1 597 0 1090 2 1096 5 13 106
9 291 -12z m-5528 -155 c153 -88 282 -164 286 -168 4 -4 -36 -37 -90 -73 -453
-302 -814 -706 -1075 -1203 -38 -71 -66 -116 -62 -100 69 321 207 753 346
1080 89 211 296 625 313 625 2 0 130 -72 282 -161z m10690 23 c232 -436 437
-978 548 -1447 14 -60 28 -119 31 -130 3 -11 -26 39 -63 110 -261 493 -614
890 -1064 1195 -55 38 -99 72 -98 77 3 12 562 332 571 327 4 -3 38 -62 75
-132z m-8358 113 c264 -30 532 -96 776 -192 129 -51 295 -128 295 -137 0 -2
-23 -19 -51 -36 -168 -109 -425 -332 -577 -503 -125 -140 -194 -228 -293 -373
l-75 -113 -904 522 -903 522 91 43 c279 131 628 230 940 266 163 19 536 19
701 1z m6350 0 c249 -28 511 -91 741 -178 155 -59 303 -128 293 -138 -12 -12
-1795 -1040 -1798 -1037 -1 2 -34 50 -72 108 -229 343 -568 685 -872 880 -28
17 -51 34 -51 36 0 9 166 86 295 137 237 93 513 162 763 191 163 19 536 19
701 1z m-7254 -960 c484 -279 885 -512 892 -517 8 -6 -10 -53 -67 -171 -171
-354 -280 -765 -308 -1160 l-7 -108 -105 72 c-664 455 -1125 1161 -1280 1959
-23 120 -50 342 -50 413 0 47 0 47 23 33 12 -8 418 -242 902 -521z m2099 503
c3 -13 6 -46 6 -73 0 -139 57 -459 121 -680 77 -265 215 -575 364 -815 56 -90
221 -313 302 -409 21 -25 34 -42 28 -39 -161 88 -1805 1043 -1805 1048 0 4 30
52 66 106 154 230 383 483 594 655 102 84 299 228 311 229 4 0 9 -10 13 -22z
m3390 -49 c298 -210 555 -466 762 -759 85 -119 108 -160 98 -170 -5 -5 -394
-231 -864 -503 -470 -271 -877 -506 -905 -522 l-50 -30 58 70 c373 445 613
938 721 1475 28 137 56 349 56 420 0 46 9 90 17 90 3 0 51 -32 107 -71z m2906
28 c0 -73 -29 -297 -56 -431 -156 -784 -618 -1485 -1274 -1935 l-105 -72 -7
108 c-28 395 -136 806 -308 1161 l-79 162 52 30 c29 16 437 252 907 524 470
272 858 495 863 495 4 1 7 -18 7 -42z m-9657 -154 c-335 -723 -508 -1414 -539
-2160 l-7 -163 -354 0 -353 0 0 30 c0 60 30 318 50 425 136 742 547 1415 1143
1877 49 37 91 68 93 68 2 0 -13 -35 -33 -77z m10102 -30 c61 -48 166 -144 235
-213 523 -522 834 -1184 900 -1920 5 -63 10 -125 10 -137 l0 -23 -353 0 -354
0 -7 163 c-31 734 -227 1522 -531 2139 -25 49 -45 92 -45 94 0 10 40 -19 145
-103z m-9874 -168 c128 -812 599 -1586 1259 -2069 36 -26 67 -50 69 -52 2 -2
-435 -4 -972 -4 l-977 0 0 83 c0 179 32 499 75 754 80 471 235 960 439 1388
l71 149 8 -59 c4 -33 16 -118 28 -190z m9778 -205 c211 -532 327 -1038 371
-1619 5 -74 10 -172 10 -218 l0 -83 -977 0 c-537 0 -974 2 -972 4 2 2 33 26
69 52 161 118 352 293 487 447 451 514 727 1137 799 1807 l7 65 68 -140 c38
-77 100 -219 138 -315z m-3719 383 c-12 -21 -279 -483 -593 -1026 -313 -543
-571 -986 -573 -985 -6 7 37 238 67 356 134 540 410 1024 814 1427 121 121
285 265 302 265 3 0 -5 -17 -17 -37z m-2502 -35 c112 -90 334 -316 435 -443
337 -422 557 -917 640 -1438 8 -49 11 -85 7 -80 -5 4 -268 458 -585 1008 -317
550 -579 1003 -582 1008 -11 19 15 2 85 -55z m360 -1013 c327 -566 603 -1045
614 -1062 11 -18 17 -33 14 -33 -3 0 -51 37 -108 81 -124 98 -388 361 -482
479 -283 358 -485 771 -591 1210 -27 115 -65 331 -65 370 1 24 1 24 12 5 6
-11 279 -483 606 -1050z m2312 968 c-59 -411 -197 -804 -405 -1152 -145 -242
-284 -418 -487 -617 -123 -121 -324 -292 -332 -283 -5 5 1228 2139 1232 2134
2 -2 -1 -39 -8 -82z m-3200 -1380 c514 -297 949 -547 965 -556 42 -22 29 -21
-125 12 -260 57 -347 66 -680 66 -201 0 -337 -5 -400 -13 -356 -50 -680 -145
-994 -291 -49 -22 -92 -41 -95 -41 -14 0 12 288 40 445 26 147 79 346 127 480
52 142 61 165 135 318 45 94 65 127 76 124 9 -2 437 -247 951 -544z m4508 420
c132 -278 210 -517 261 -798 27 -156 54 -445 40 -445 -3 0 -46 19 -95 41 -314
146 -638 241 -994 291 -63 8 -199 13 -400 13 -332 0 -420 -9 -679 -65 -74 -17
-136 -29 -137 -27 -4 3 1920 1115 1932 1116 6 1 38 -56 72 -126z m-4038 -1054
c253 -25 602 -110 810 -197 18 -8 -315 -11 -1125 -11 l-1150 0 75 30 c173 69
468 142 684 170 223 29 468 31 706 8z m3205 -5 c238 -26 534 -97 725 -173 l75
-30 -1150 0 c-988 0 -1146 2 -1118 14 48 20 267 92 354 114 169 45 423 82 634
95 99 6 341 -4 480 -20z m-7471 -521 c30 -755 224 -1523 550 -2181 36 -73 63
-132 60 -132 -3 0 -38 24 -77 53 -389 288 -712 676 -927 1112 -193 392 -292
765 -316 1193 l-7 122 355 0 355 0 7 -167z m2175 163 c-2 -2 -47 -35 -99 -71
-344 -244 -659 -582 -879 -945 -231 -380 -391 -826 -441 -1230 -7 -52 -15
-103 -19 -114 -5 -14 -25 20 -78 130 -247 518 -415 1108 -482 1699 -17 142
-31 351 -31 447 l0 88 1017 0 c559 0 1014 -2 1012 -4z m3035 -5 c-14 -13 -227
-95 -339 -131 -592 -188 -1258 -186 -1856 5 -122 40 -308 112 -323 126 -6 5
539 9 1259 9 716 0 1265 -4 1259 -9z m3170 0 c-15 -14 -201 -86 -323 -126
-334 -107 -665 -153 -1026 -142 -379 12 -696 77 -1045 214 -63 25 -119 50
-124 54 -6 5 543 9 1259 9 720 0 1265 -4 1259 -9z m2546 -83 c0 -135 -25 -419
-55 -624 -75 -522 -238 -1058 -462 -1527 -66 -136 -82 -153 -83 -82 -1 97 -73
431 -135 619 -213 654 -642 1239 -1195 1631 -52 36 -97 69 -99 71 -2 2 453 4
1012 4 l1017 0 0 -92z m860 40 c0 -146 -38 -425 -84 -620 -163 -688 -587
-1329 -1163 -1755 -39 -29 -74 -53 -77 -53 -2 0 33 78 79 173 258 535 428
1126 499 1732 19 160 36 394 36 498 l0 77 355 0 355 0 0 -52z m-8910 -192
c528 -184 1073 -231 1609 -140 79 13 145 23 147 21 3 -4 -1797 -1040 -1800
-1036 -2 2 -24 45 -49 94 -176 353 -289 762 -313 1132 l-7 102 139 -63 c76
-35 200 -85 274 -110z m5726 72 c-17 -274 -87 -583 -193 -858 -52 -135 -163
-372 -174 -368 -16 7 -1788 1032 -1786 1034 1 1 65 -8 142 -21 630 -107 1309
-15 1885 254 69 33 127 59 129 60 2 1 1 -45 -3 -101z m-6281 -15 c31 -406 148
-820 333 -1189 l51 -102 -906 -523 c-499 -288 -911 -526 -916 -528 -17 -7 14
258 54 459 129 642 513 1287 1024 1717 100 84 330 253 345 253 4 0 11 -39 15
-87z m6582 -5 c423 -303 746 -683 973 -1143 184 -373 278 -708 316 -1123 l6
-74 -49 29 c-27 15 -439 253 -915 528 l-866 500 50 100 c185 368 302 783 334
1188 5 75 9 87 22 82 9 -3 67 -42 129 -87z m-3658 -90 c-7 -13 -257 -448 -557
-968 -300 -520 -559 -969 -576 -998 -17 -29 -32 -48 -34 -42 -2 6 4 54 13 108
105 619 402 1197 845 1643 108 109 301 279 316 279 2 0 -1 -10 -7 -22z m673
-55 c551 -455 942 -1134 1063 -1846 10 -54 15 -100 13 -103 -3 -2 -212 355
-466 793 -253 439 -517 896 -586 1016 -69 119 -123 217 -121 217 2 0 46 -35
97 -77z m362 -1023 c338 -586 613 -1066 611 -1068 -15 -15 -305 244 -452 403
-399 433 -666 980 -762 1560 -26 159 -29 187 -19 177 4 -4 284 -487 622 -1072z
m-884 898 c-74 -430 -228 -822 -465 -1183 -135 -206 -295 -392 -495 -577 -95
-88 -241 -208 -253 -208 -3 0 139 249 314 553 176 303 453 784 617 1068 208
361 298 508 300 493 2 -13 -6 -79 -18 -146z m1765 -488 c479 -276 900 -520
937 -542 l68 -39 -37 -57 c-135 -209 -342 -453 -515 -610 -144 -130 -411 -332
-440 -332 -4 0 -8 22 -8 49 0 138 -64 496 -126 699 -153 506 -401 931 -768
1321 -48 51 -49 53 -16 33 19 -11 427 -246 905 -522z m-2421 423 c-394 -436
-656 -951 -773 -1515 -32 -158 -61 -363 -61 -439 0 -27 -3 -49 -6 -49 -32 0
-285 190 -452 340 -149 133 -377 405 -504 601 l-36 56 961 556 c529 306 963
556 965 557 2 0 -41 -48 -94 -107z m722 -2469 c-3 -8 -29 -10 -78 -7 -380 21
-745 106 -1073 250 -122 54 -185 86 -185 93 0 4 32 28 71 55 549 375 999 968
1214 1600 20 61 40 117 44 125 7 16 14 -2098 7 -2116z m164 2100 c0 -26 91
-267 151 -398 229 -502 609 -963 1059 -1283 58 -41 106 -78 108 -82 5 -13
-210 -111 -383 -173 -262 -94 -601 -160 -870 -170 l-80 -3 -3 1068 c-1 714 1
1066 8 1062 5 -3 10 -13 10 -21z m-6130 -539 c154 -293 325 -528 560 -768 148
-152 273 -260 443 -382 62 -44 114 -84 115 -89 4 -10 -519 -316 -530 -310 -13
8 -141 256 -219 424 -158 343 -292 716 -379 1055 -17 66 -33 129 -37 140 -9
33 3 15 47 -70z m12100 -31 c-92 -361 -229 -747 -384 -1084 -89 -193 -215
-430 -228 -430 -7 0 -522 292 -535 304 -1 1 53 41 120 89 427 304 781 711
1007 1155 24 46 44 81 46 80 1 -2 -10 -53 -26 -114z m-8732 -269 c224 -333
517 -629 851 -857 l104 -71 -89 -45 c-826 -416 -1834 -428 -2673 -31 -74 36
-121 63 -115 68 16 16 1829 1060 1835 1058 4 -1 43 -56 87 -122z m6367 -410
l917 -530 -108 -52 c-843 -408 -1866 -401 -2698 19 l-89 45 104 71 c336 230
638 535 860 870 41 62 79 111 85 110 6 -2 424 -241 929 -533z m1418 -819 c141
-82 257 -154 257 -160 0 -16 -173 -285 -276 -429 -198 -277 -438 -559 -669
-787 l-147 -145 50 81 c210 340 368 754 437 1149 20 113 45 343 45 414 0 53 0
53 23 39 12 -8 138 -81 280 -162z m-9915 12 c40 -501 197 -993 451 -1413 l72
-120 -146 145 c-232 230 -472 512 -669 787 -100 140 -276 413 -276 428 0 9
535 324 550 325 3 0 11 -69 18 -152z m3453 93 c340 -160 763 -269 1119 -287
63 -3 125 -7 138 -10 l22 -4 0 -1065 c0 -586 -3 -1065 -7 -1065 -11 1 -195
133 -284 205 -105 84 -277 253 -378 370 -426 494 -682 1101 -741 1755 -12 140
-12 160 -2 160 5 0 65 -26 133 -59z m2834 -33 c-71 -953 -529 -1773 -1299
-2325 -56 -40 -104 -73 -108 -73 -5 0 -8 479 -8 1065 l0 1065 23 4 c12 3 74 7
137 10 357 18 801 133 1125 291 61 29 116 54 124 54 11 1 12 -17 6 -91z
m-3275 16 c0 -9 -951 -1657 -965 -1673 -11 -11 -32 -1 -126 59 -496 314 -948
719 -1329 1190 -95 118 -293 391 -287 396 2 2 60 -18 128 -45 518 -206 1082
-275 1629 -200 285 38 644 140 865 244 73 35 85 39 85 29z m3700 -45 c118 -52
318 -119 473 -158 649 -167 1353 -121 1986 130 68 27 126 48 128 46 5 -6 -195
-283 -287 -397 -381 -471 -833 -876 -1329 -1190 -62 -40 -116 -68 -120 -63 -6
5 -872 1506 -969 1677 -3 5 1 7 9 3 8 -3 57 -25 109 -48z m231 -858 c470 -815
492 -854 473 -868 -10 -8 -111 -61 -224 -117 -552 -274 -1123 -444 -1745 -521
-136 -17 -333 -30 -325 -23 3 3 52 43 109 88 505 401 900 991 1080 1615 61
212 121 540 121 663 0 22 4 32 9 27 5 -6 231 -394 502 -864z m-3755 684 c74
-594 309 -1151 685 -1626 106 -135 365 -393 499 -499 58 -45 107 -85 110 -88
8 -7 -189 6 -325 23 -622 77 -1193 247 -1745 521 -113 56 -213 108 -223 116
-16 12 19 77 459 838 261 454 485 841 497 860 l22 35 3 -30 c1 -16 9 -84 18
-150z m-2786 -205 c145 -190 282 -344 489 -551 296 -295 539 -494 885 -721 99
-65 181 -123 181 -128 0 -17 -340 -600 -350 -600 -18 0 -307 189 -379 248
-107 87 -303 287 -400 408 -361 451 -576 944 -661 1521 -8 57 -15 119 -15 140
0 35 3 33 81 -83 45 -65 121 -171 169 -234z m9040 215 c-84 -636 -346 -1207
-773 -1684 -101 -112 -277 -276 -363 -338 -112 -79 -306 -195 -314 -187 -10
11 -339 579 -342 593 -2 5 79 63 178 129 349 230 591 428 890 726 271 272 511
560 679 819 59 90 64 83 45 -58z m-7313 -1700 c12 -8 102 -55 200 -104 611
-305 1236 -486 1925 -556 81 -8 167 -15 191 -15 25 0 59 -3 76 -6 31 -7 31 -7
9 -18 -65 -33 -217 -94 -332 -133 -644 -216 -1346 -215 -1976 2 -97 34 -440
201 -467 228 -9 9 29 83 164 315 96 166 178 302 182 302 3 0 16 -7 28 -15z
m5561 -287 c141 -246 171 -304 160 -314 -26 -26 -366 -193 -453 -224 -713
-249 -1497 -222 -2214 78 -145 61 -149 69 -33 71 168 3 550 56 812 112 507
108 1029 299 1450 531 47 25 90 47 95 47 6 0 88 -135 183 -301z m-2958 -798
l0 -310 -73 0 c-275 0 -737 51 -1087 121 -157 31 -492 113 -515 127 -7 4 77 7
188 8 210 1 332 11 527 45 287 49 640 165 875 287 33 17 66 31 73 32 9 0 12
-68 12 -310z m228 276 c317 -159 707 -273 1092 -317 58 -7 196 -13 307 -13
111 -1 195 -4 188 -8 -23 -14 -358 -96 -515 -127 -347 -69 -814 -121 -1087
-121 l-73 0 0 310 c0 205 3 310 10 310 6 0 41 -15 78 -34z"/>
</g>
</svg>
